<svg xmlns="http://www.w3.org/2000/svg" width="77" height="30" fill="none"><path fill="#000" fill-rule="evenodd" d="M12.85 9.24a7.5 7.5 0 1 0-.17 10.69 8.96 8.96 0 0 1 .17-10.7Z" clip-rule="evenodd"/><path fill="#000" d="M18.44 7.43h3.14V22h-3.14V7.43Z"/><path fill="#000" d="M27.3 13.14v3.15H12.71v-3.15H27.3Z"/><path fill="#000" d="m24.05 8.45 2.22 2.23-10.3 10.3-2.22-2.22 10.3-10.3Z"/><path fill="#000" d="m26.27 18.76-2.22 2.22-10.3-10.3 2.22-2.23 10.3 10.3Z"/><g clip-path="url(#a)"><path fill="#000" d="M33.35 21.86h-2.91V7.28h5.03l1.84 6.92c.47 1.79.85 3.37 1.08 4.62h.04c.25-1.25.7-3.19 1.08-4.58l1.83-6.96h4.98v14.58H43.4v-8.37c0-.56.05-2.67.09-3.98h-.06c-.44 1.73-.96 3.67-1.17 4.4l-2.16 7.95h-3.46l-2.17-8.04c-.18-.7-.74-2.85-1.14-4.3h-.06c.02 1.3.08 3.49.08 4.05v8.29Zm19.39-7.48c1.58.56 2.56 1.67 2.56 3.42 0 3.54-2.87 4.06-6.14 4.06h-5.79V7.28h5.5c2.83 0 5.87.52 5.87 3.94a3.3 3.3 0 0 1-2 3.16Zm-4.02-4.64h-2.2v3.46h2.18c1.7 0 2.96-.05 2.96-1.73 0-1.63-1.25-1.73-2.94-1.73Zm-2.2 9.66h2.5c1.97 0 3.2-.1 3.2-1.83 0-1.86-1.54-1.92-3.1-1.92h-2.6v3.75Zm13.36 2.7c-3.36 0-6.19-1.56-6.3-5.07l3.21-.36c0 2.04 1.3 3.02 3.17 3.02 1.62 0 2.87-.54 2.87-2 0-1.41-1.48-1.48-3.68-1.95-2.92-.63-5.17-1.65-5.17-4.44 0-2.98 2.88-4.27 5.69-4.27 3.16 0 5.55 1.25 5.9 4.67l-3.18.5c-.08-1.94-1.06-2.77-2.74-2.77-1.5 0-2.48.58-2.48 1.73 0 1.08 1.16 1.5 3.25 1.87 3.16.56 5.62 1.44 5.62 4.58 0 3.5-3.13 4.5-6.16 4.5Zm11.52-.24h-3.14V9.93H63.6V7.28h12.43v2.65H71.4v11.93Z"/></g><defs><clipPath id="a"><path fill="#fff" d="M29 .86h48v29H29z"/></clipPath></defs></svg>